<svg width="53" height="43" viewBox="0 0 53 43" fill="none" xmlns="http://www.w3.org/2000/svg">
<path d="M50 42H3C1.89543 42 1 41.1046 1 40V5C1 3.89543 1.89543 3 3 3H50C51.1046 3 52 3.89543 52 5V40C52 41.1046 51.1046 42 50 42Z" fill="#D1F9FF" stroke="#593378" stroke-linecap="round"/>
<path d="M26.5129 6.38763C36.925 0.279469 44.9269 0.141963 47.9211 0.844666V35.7831C44.1242 35.3146 39.7547 36.1318 35.8185 37.3427C32.1103 38.4835 28.7391 39.9895 26.5129 41.162V6.38763Z" fill="white" stroke="#593378" stroke-linecap="round"/>
<path d="M26.4871 6.33398C16.075 0.225819 8.07311 0.0883131 5.07893 0.791016V35.7295C8.87586 35.261 13.2453 36.0782 17.1815 37.2891C20.8897 38.4298 24.2609 39.9359 26.4871 41.1084V6.33398Z" fill="white" stroke="#593378" stroke-linecap="round"/>
<mask id="path-4-inside-1_20_2" fill="white">
<path d="M15.0459 10.1562C17.7977 7.30653 22.2872 7.27816 25.0732 10.0928L26.5811 11.6162L27.9268 10.2578C30.7129 7.4432 35.2023 7.47157 37.9541 10.3213C40.7057 13.1709 40.6784 17.7625 37.8926 20.5771L26.585 32L26.4199 31.8291L26.415 31.8349L15.1074 20.4121C12.3215 17.5975 12.2942 13.0059 15.0459 10.1562Z"/>
</mask>
<path d="M15.0459 10.1562C17.7977 7.30653 22.2872 7.27816 25.0732 10.0928L26.5811 11.6162L27.9268 10.2578C30.7129 7.4432 35.2023 7.47157 37.9541 10.3213C40.7057 13.1709 40.6784 17.7625 37.8926 20.5771L26.585 32L26.4199 31.8291L26.415 31.8349L15.1074 20.4121C12.3215 17.5975 12.2942 13.0059 15.0459 10.1562Z" fill="#593378"/>
<path d="M15.0459 10.1562L14.3265 9.4616L14.3265 9.46161L15.0459 10.1562ZM25.0732 10.0928L25.784 9.38931L25.7839 9.38926L25.0732 10.0928ZM26.5811 11.6162L25.8703 12.3197L26.5807 13.0374L27.2915 12.32L26.5811 11.6162ZM27.9268 10.2578L28.6372 10.9616L28.6375 10.9613L27.9268 10.2578ZM37.9541 10.3213L38.6735 9.62665L38.6735 9.62664L37.9541 10.3213ZM37.8926 20.5771L38.6033 21.2807L38.6033 21.2806L37.8926 20.5771ZM26.585 32L25.8656 32.6947L26.5761 33.4304L27.2957 32.7035L26.585 32ZM26.4199 31.8291L27.1393 31.1344L26.3651 30.3328L25.6517 31.1889L26.4199 31.8291ZM26.415 31.8349L25.7044 32.5385L26.4787 33.3207L27.1833 32.4751L26.415 31.8349ZM15.1074 20.4121L14.3967 21.1156L14.3967 21.1156L15.1074 20.4121ZM15.0459 10.1562L15.7653 10.8509C18.1274 8.40464 21.9714 8.38062 24.3626 10.7963L25.0732 10.0928L25.7839 9.38926C22.6029 6.1757 17.4679 6.20842 14.3265 9.4616L15.0459 10.1562ZM25.0732 10.0928L24.3625 10.7962L25.8703 12.3197L26.5811 11.6162L27.2918 10.9127L25.784 9.38931L25.0732 10.0928ZM26.5811 11.6162L27.2915 12.32L28.6372 10.9616L27.9268 10.2578L27.2163 9.55402L25.8706 10.9124L26.5811 11.6162ZM27.9268 10.2578L28.6375 10.9613C31.0286 8.54566 34.8726 8.56967 37.2347 11.0159L37.9541 10.3213L38.6735 9.62664C35.5321 6.37346 30.3971 6.34074 27.2161 9.5543L27.9268 10.2578ZM37.9541 10.3213L37.2347 11.0159C39.6091 13.4749 39.5851 17.4456 37.1819 19.8737L37.8926 20.5771L38.6033 21.2806C41.7717 18.0795 41.8023 12.867 38.6735 9.62665L37.9541 10.3213ZM37.8926 20.5771L37.1819 19.8736L25.8743 31.2965L26.585 32L27.2957 32.7035L38.6033 21.2807L37.8926 20.5771ZM26.585 32L27.3043 31.3053L27.1393 31.1344L26.4199 31.8291L25.7006 32.5238L25.8656 32.6947L26.585 32ZM26.4199 31.8291L25.6517 31.1889L25.6468 31.1948L26.415 31.8349L27.1833 32.4751L27.1881 32.4693L26.4199 31.8291ZM26.415 31.8349L27.1257 31.1314L15.8181 19.7086L15.1074 20.4121L14.3967 21.1156L25.7044 32.5385L26.415 31.8349ZM15.1074 20.4121L15.8181 19.7086C13.4148 17.2806 13.3909 13.3099 15.7653 10.8509L15.0459 10.1562L14.3265 9.46161C11.1976 12.702 11.2282 17.9144 14.3967 21.1156L15.1074 20.4121Z" fill="#593378" mask="url(#path-4-inside-1_20_2)"/>
</svg>
